<svg xmlns="http://www.w3.org/2000/svg" width="24" height="24" viewBox="0 0 24 24"><defs><style>.a{fill:none;}.b{fill:#ff5866;}</style></defs><g transform="translate(-1402 -187)"><rect class="a" width="24" height="24" transform="translate(1402 187)"/><path class="b" d="M4423.481,2582.886l-5.533-2.333-5.925,2.333a2.343,2.343,0,0,1-.615.114,1.54,1.54,0,0,1-1.006-.341,1.7,1.7,0,0,1-.67-1.479l.39-6.426-3.745-4.721a1.918,1.918,0,0,1-.334-1.535,1.577,1.577,0,0,1,1-1.137l5.981-2.389,3.41-5.232a1.675,1.675,0,0,1,2.738-.057l3.745,5.289,6.038,2.5a1.775,1.775,0,0,1,1.005,1.194,1.846,1.846,0,0,1-.392,1.535l-4.023,4.607.223,6.426a1.815,1.815,0,0,1-.727,1.479,1.854,1.854,0,0,1-.951.285A1.3,1.3,0,0,1,4423.481,2582.886Z" transform="translate(-3004 -2372)"/></g></svg>