<svg xmlns="http://www.w3.org/2000/svg" width="18" height="18" viewBox="0 0 18 18"><defs><style>.a{fill:#eeeff1;}</style></defs><g transform="translate(-309.371 -126.363)"><g transform="translate(309.371 126.363)"><path class="a" d="M4948.405-855a1,1,0,0,1-.7-.284l-8.2-8a1,1,0,0,1-.3-.716,1,1,0,0,1,.3-.716l8.2-8a1,1,0,0,1,1.414.017,1,1,0,0,1-.018,1.414L4941.639-864l7.465,7.284a1,1,0,0,1,.018,1.414A1,1,0,0,1,4948.405-855Z" transform="translate(-4939.207 873)"/><path class="a" d="M4955.778-857h-16.615c-.382,0-.692-.448-.692-1s.311-1,.692-1h16.615c.383,0,.692.448.692,1S4956.161-857,4955.778-857Z" transform="translate(-4938.471 867)"/></g></g></svg>