<svg xmlns="http://www.w3.org/2000/svg" width="18" height="18" viewBox="0 0 18 18"><defs><style>.a{fill:#eeeff1;}</style></defs><g transform="translate(0 0)"><path class="a" d="M4940.207-855a1,1,0,0,0,.7-.284l8.2-8a1,1,0,0,0,.3-.716,1,1,0,0,0-.3-.716l-8.2-8a1,1,0,0,0-1.414.017,1,1,0,0,0,.018,1.414l7.465,7.284-7.465,7.284a1,1,0,0,0-.018,1.414A1,1,0,0,0,4940.207-855Z" transform="translate(-4931.405 873)"/><path class="a" d="M4939.163-857h16.615c.382,0,.692-.448.692-1s-.311-1-.692-1h-16.615c-.383,0-.692.448-.692,1S4938.78-857,4939.163-857Z" transform="translate(-4938.471 867)"/></g></svg>