<svg t="1657594386433" class="icon" viewBox="0 0 1024 1024" version="1.1" xmlns="http://www.w3.org/2000/svg" p-id="2277" width="200" height="200"><path d="M352 448l-256 0C43.072 448 0 404.928 0 352l0-256C0 43.072 43.072 0 96 0l256 0C404.928 0 448 43.072 448 96l0 256C448 404.928 404.928 448 352 448zM96 64C78.336 64 64 78.336 64 96l0 256C64 369.664 78.336 384 96 384l256 0C369.664 384 384 369.664 384 352l0-256C384 78.336 369.664 64 352 64L96 64zM352 960l-256 0C43.072 960 0 916.928 0 864l0-256C0 555.072 43.072 512 96 512l256 0C404.928 512 448 555.072 448 608l0 256C448 916.928 404.928 960 352 960zM96 576C78.336 576 64 590.4 64 608l0 256C64 881.6 78.336 896 96 896l256 0C369.664 896 384 881.6 384 864l0-256C384 590.4 369.664 576 352 576L96 576zM864 960l-256 0C555.072 960 512 916.928 512 864l0-256C512 555.072 555.072 512 608 512l256 0C916.928 512 960 555.072 960 608l0 256C960 916.928 916.928 960 864 960zM608 576C590.4 576 576 590.4 576 608l0 256C576 881.6 590.4 896 608 896l256 0c17.6 0 32-14.4 32-32l0-256C896 590.4 881.6 576 864 576L608 576zM864 448l-256 0C555.072 448 512 404.928 512 352l0-256C512 43.072 555.072 0 608 0l256 0C916.928 0 960 43.072 960 96l0 256C960 404.928 916.928 448 864 448zM608 64C590.4 64 576 78.336 576 96l0 256C576 369.664 590.4 384 608 384l256 0C881.6 384 896 369.664 896 352l0-256C896 78.336 881.6 64 864 64L608 64z" p-id="2278" fill="#0A4067"></path></svg>