<svg t="1657532741273" class="icon" viewBox="0 0 1024 1024" version="1.1" xmlns="http://www.w3.org/2000/svg" p-id="2800" width="200" height="200"><path d="M512 1024a512 512 0 1 1 512-512 512.537815 512.537815 0 0 1-512 512z m0-945.478992a433.478992 433.478992 0 1 0 433.478992 433.478992 434.285714 434.285714 0 0 0-433.478992-433.478992zM389.915966 773.378151c-87.12605 0-157.579832-66.151261-157.579832-147.361344a142.736134 142.736134 0 0 1 20.436975-72.605042 154.998319 154.998319 0 0 1 89.815126-67.764706 86.910924 86.910924 0 0 1 26.890757-4.302521 39.798319 39.798319 0 0 1 0 79.596638h-2.689076a77.768067 77.768067 0 0 0-45.714286 32.806723 58.084034 58.084034 0 0 0-8.605042 31.193277c0 37.109244 34.420168 67.226891 77.445378 67.226891a85.189916 85.189916 0 0 0 42.487395-11.294117 64.537815 64.537815 0 0 0 34.957984-55.932774V394.218487c0-51.630252 27.966387-98.420168 75.294117-125.310924a165.70084 165.70084 0 0 1 81.747899-21.512605c87.12605 0 157.579832 66.151261 157.579832 147.361345a142.736134 142.736134 0 0 1-20.436975 72.605042 154.998319 154.998319 0 0 1-89.815126 67.764705 91.912605 91.912605 0 0 1-26.890756 4.302521 39.798319 39.798319 0 0 1 0-79.596638h2.689076c20.436975-6.453782 37.109244-17.747899 46.252101-33.344538a58.084034 58.084034 0 0 0 8.605042-31.193277c0-37.109244-34.957983-67.226891-77.445379-67.226891a85.189916 85.189916 0 0 0-42.487394 11.294118 64.537815 64.537815 0 0 0-34.957984 55.932773v231.260504c0 51.630252-27.966387 98.420168-75.294117 125.310924a170.487395 170.487395 0 0 1-82.285715 21.512605z" p-id="2801" fill="#3EA9FC"></path></svg>